<?xml version="1.0" standalone="no"?>
<!DOCTYPE svg PUBLIC "-//W3C//DTD SVG 20010904//EN"
 "http://www.w3.org/TR/2001/REC-SVG-20010904/DTD/svg10.dtd">
<svg version="1.0" xmlns="http://www.w3.org/2000/svg"
 width="1024.000000pt" height="1024.000000pt" viewBox="0 0 1024.000000 1024.000000"
 preserveAspectRatio="xMidYMid meet">

<g transform="translate(0.000000,1024.000000) scale(0.100000,-0.100000)"
fill="#000000" stroke="none">
<path d="M3083 8789 c8 -136 37 -252 91 -364 56 -116 95 -169 207 -282 l92
-91 -58 -73 c-257 -329 -377 -782 -321 -1209 32 -240 109 -446 243 -648 71
-107 208 -253 231 -246 15 5 15 4 2 -5 -14 -10 -7 -16 13 -12 5 1 6 -3 3 -8
-9 -14 21 -33 57 -37 l32 -2 -30 14 c-29 14 -29 15 -3 9 23 -4 25 -2 21 16 -4
12 0 25 7 29 11 7 11 12 1 23 -9 12 -9 16 1 19 8 3 12 29 13 84 0 63 3 79 15
79 11 0 15 12 16 40 l2 40 -8 -40 c-7 -38 -7 -36 -9 22 -1 41 3 63 12 66 10 4
10 7 0 18 -15 16 -17 49 -3 49 6 0 10 11 10 25 0 14 -5 23 -12 21 -7 -1 -9 -1
-5 2 4 2 2 11 -5 20 -7 9 0 6 16 -6 16 -12 33 -22 39 -22 5 0 30 -16 55 -37
74 -61 256 -147 353 -168 131 -27 306 -18 416 22 114 41 186 87 270 170 141
139 228 311 251 498 l8 60 7 -66 c19 -177 121 -366 275 -510 137 -128 260
-179 449 -187 102 -4 137 -1 217 17 236 55 487 238 636 463 33 51 60 84 60 75
0 -9 4 -17 9 -17 6 0 10 -50 11 -112 0 -62 2 -129 4 -148 3 -37 -10 -64 -26
-54 -6 4 -8 -2 -3 -15 4 -14 3 -21 -6 -19 -6 2 -13 -8 -14 -20 -1 -13 -6 -27
-11 -30 -5 -4 -16 -20 -24 -37 -28 -54 -291 -308 -422 -407 -70 -52 -124 -98
-121 -102 4 -3 34 -6 68 -6 60 0 64 -2 89 -34 14 -19 26 -40 26 -47 0 -8 7 -5
20 6 27 25 25 7 -2 -24 l-23 -26 25 20 c14 11 27 22 30 25 3 3 25 21 50 40
102 78 268 230 337 309 182 209 305 462 359 741 28 144 25 439 -5 579 -58 274
-156 495 -309 699 l-55 74 96 96 c107 109 172 204 218 317 40 102 71 260 67
353 l-3 74 -75 -56 c-165 -122 -303 -176 -730 -289 -357 -95 -308 -91 -428
-35 -299 141 -649 208 -934 180 -221 -22 -458 -88 -654 -181 l-101 -48 -199
52 c-525 139 -637 180 -824 305 -47 31 -91 60 -99 65 -12 7 -13 -8 -8 -96z
m1746 -328 c13 -24 -8 -55 -34 -50 -28 6 -42 34 -26 53 18 22 48 20 60 -3z
m354 -22 c55 -67 -23 -172 -103 -139 -32 13 -60 55 -60 88 0 25 37 71 64 81
28 11 77 -4 99 -30z m272 20 c14 -43 -45 -66 -61 -24 -8 19 13 45 37 45 10 0
21 -10 24 -21z m-872 -51 l21 -28 -21 -27 c-53 -72 -148 -8 -97 65 22 32 70
26 97 -10z m1139 15 c27 -24 23 -69 -7 -89 -61 -40 -119 34 -72 94 13 17 57
15 79 -5z m-2165 -37 c150 -47 459 -135 601 -171 289 -72 486 -154 645 -268
l77 -56 25 48 c89 176 317 173 407 -4 11 -22 22 -42 24 -44 1 -2 29 17 61 41
167 128 332 195 742 303 170 45 453 126 574 165 15 5 27 5 27 0 0 -19 -100
-141 -180 -220 -166 -164 -352 -276 -655 -394 -337 -132 -399 -167 -535 -306
-143 -145 -225 -311 -252 -508 l-13 -93 -12 96 c-21 169 -80 310 -182 436
-130 162 -253 242 -546 354 -348 133 -533 244 -715 427 -91 92 -193 218 -176
218 3 0 40 -11 83 -24z m1270 -128 c14 -13 23 -33 23 -50 0 -36 -40 -78 -75
-78 -36 0 -75 42 -75 80 0 63 79 94 127 48z m660 0 c31 -35 33 -52 12 -86 -33
-55 -109 -51 -130 7 -29 74 65 137 118 79z m-1597 -495 c200 -112 407 -217
515 -263 329 -141 479 -354 461 -656 -3 -56 -10 -112 -15 -125 -9 -23 -10 -23
-10 -2 -1 26 -21 42 -21 17 0 -9 -32 -48 -71 -85 -78 -76 -184 -135 -299 -166
-85 -22 -243 -22 -329 1 -248 65 -457 278 -533 542 -19 67 -23 103 -23 234 0
164 10 239 52 375 26 83 43 114 43 80 0 -14 3 -16 8 -8 5 9 16 4 36 -17 15
-17 34 -30 42 -30 8 0 14 -8 14 -17 0 -17 40 -43 67 -43 7 0 13 -8 13 -19 0
-10 9 -21 20 -24 11 -3 20 -12 20 -21 0 -9 8 -16 20 -16 11 0 20 -4 20 -10 0
-5 8 -10 18 -10 9 0 25 -7 36 -15 16 -12 20 -12 33 0 8 8 22 19 31 24 15 9 6
22 -63 93 -161 167 -230 241 -220 236 6 -3 66 -37 135 -75z m2539 40 c-14 -16
-78 -85 -143 -155 l-118 -128 35 -49 c20 -27 45 -67 56 -89 22 -43 44 -159 36
-189 -3 -10 2 -3 10 15 12 26 21 32 46 32 22 0 30 4 26 13 -6 17 20 34 66 42
29 6 36 12 39 34 3 22 8 26 41 29 29 3 37 7 37 23 0 12 7 19 20 19 14 0 20 7
20 21 0 12 5 19 13 17 6 -3 12 -10 12 -16 0 -7 5 -12 10 -11 31 1 34 -239 5
-354 -68 -270 -258 -483 -500 -558 -102 -32 -326 -35 -407 -5 -29 11 -49 24
-46 29 3 5 -5 7 -18 3 -18 -4 -16 -2 6 8 22 10 25 15 12 17 -15 4 -16 7 -2 33
8 15 15 35 15 42 0 8 5 14 10 14 6 0 10 9 10 20 0 13 7 20 20 20 11 0 20 7 20
14 0 8 11 27 24 41 14 15 23 36 22 48 -3 21 1 23 58 25 69 3 90 12 28 12 -96
0 -215 74 -262 164 -21 39 -23 48 -11 69 l13 24 51 -51 c58 -58 104 -76 188
-76 138 0 259 124 259 265 0 48 -28 132 -55 162 l-23 28 -29 -27 c-15 -15 -66
-43 -112 -63 -91 -39 -143 -71 -237 -147 -130 -105 -263 -295 -295 -423 -19
-76 -33 -29 -33 115 -1 142 13 201 72 315 44 86 153 198 237 246 33 19 108 55
166 80 106 45 492 246 579 300 56 36 60 36 29 2z m365 -1069 c3 -8 2 -12 -4
-9 -6 3 -10 -1 -10 -9 0 -8 -4 -17 -10 -21 -5 -3 -5 7 1 25 12 34 15 36 23 14z"/>
<path d="M5042 7926 c-37 -20 -62 -66 -62 -114 0 -41 5 -49 67 -114 l68 -70
62 66 c57 60 63 70 63 109 0 51 -28 100 -69 122 -36 18 -97 19 -129 1z"/>
<path d="M4142 7368 c-43 -70 -53 -159 -27 -244 55 -186 305 -237 454 -93 33
31 34 32 48 13 8 -10 19 -19 26 -19 7 -1 11 -7 9 -14 -1 -7 2 -10 7 -7 5 3 16
-5 25 -19 9 -13 25 -33 37 -44 12 -11 19 -24 16 -29 -4 -5 0 -9 8 -9 13 0 13
4 -1 26 -9 14 -21 31 -28 36 -6 6 -12 16 -14 23 -5 25 -80 117 -128 157 -99
83 -152 118 -244 162 -52 25 -109 57 -126 70 -17 12 -33 23 -37 23 -3 0 -14
-15 -25 -32z"/>
<path d="M4781 6845 c0 -5 6 -21 14 -35 8 -14 14 -20 14 -15 0 6 -6 21 -14 35
-8 14 -14 21 -14 15z"/>
<path d="M2930 6298 c-363 -281 -490 -547 -459 -955 10 -125 35 -216 89 -324
76 -150 149 -232 485 -539 472 -432 543 -505 613 -630 106 -189 111 -453 11
-640 -72 -136 -209 -259 -345 -309 -89 -34 -244 -47 -380 -33 -133 14 -205 38
-273 92 -120 95 -124 256 -7 325 57 33 115 43 316 53 146 7 171 11 220 34 49
23 138 98 141 120 3 19 5 24 12 35 4 6 12 34 17 62 10 54 -2 153 -20 159 -6 2
-10 10 -10 17 0 8 -5 17 -12 21 -6 4 -8 3 -4 -4 3 -6 1 -14 -6 -18 -7 -4 -10
-4 -6 1 10 11 -11 47 -22 40 -6 -3 -7 1 -4 9 3 9 1 16 -6 16 -6 0 -8 5 -4 11
4 8 12 2 21 -15 20 -38 27 -27 8 11 -12 24 -21 31 -40 28 -19 -2 -23 1 -15 10
21 26 -71 77 -171 94 -93 16 -371 14 -461 -3 -315 -61 -562 -289 -638 -590
-25 -98 -27 -263 -5 -368 72 -338 376 -623 760 -709 42 -10 137 -14 315 -14
212 0 269 3 340 19 274 60 506 203 660 408 99 131 172 294 200 443 8 40 10
191 8 450 l-3 390 -27 76 c-32 91 -79 172 -143 245 -25 30 -223 211 -438 403
-216 192 -411 374 -434 403 -128 167 -150 304 -85 528 74 252 69 354 -29 618
-23 61 -47 112 -53 112 -6 -1 -58 -38 -116 -82z"/>
<path d="M7126 6248 c-60 -174 -70 -222 -70 -348 0 -79 8 -146 34 -270 31
-156 33 -172 27 -312 -5 -131 0 -175 16 -135 4 10 6 10 6 0 1 -7 6 -13 12 -13
6 0 8 7 4 18 -5 14 -4 15 7 4 10 -10 8 -17 -10 -35 -21 -20 -23 -21 -16 -2 4
11 4 17 0 13 -4 -3 -9 -18 -10 -32 -2 -15 -10 -34 -18 -44 -46 -52 -216 -487
-268 -685 l-23 -89 -34 94 c-75 209 -284 591 -314 573 -5 -4 -8 -1 -7 7 2 7
-5 12 -14 12 -10 -1 -16 3 -15 9 4 19 -94 49 -147 44 -26 -2 -51 -8 -55 -13
-3 -5 -12 -9 -18 -10 -28 -2 -33 -5 -33 -16 0 -9 3 -9 12 0 15 15 31 16 22 0
-5 -7 -2 -9 7 -6 10 4 15 -1 15 -12 0 -15 -5 -16 -24 -9 -34 13 -41 10 -13 -5
l23 -13 -32 -6 c-39 -8 -51 -2 -43 20 6 15 5 16 -9 3 -13 -12 -14 -16 -2 -23
7 -4 11 -15 8 -25 -5 -13 -4 -14 4 -3 7 10 9 5 8 -19 -1 -20 -8 -35 -16 -38
-13 -3 -13 -2 0 7 8 5 11 13 8 16 -11 11 -28 -5 -28 -25 0 -10 -5 -22 -10 -25
-6 -4 -8 -10 -5 -15 3 -4 -2 -10 -9 -13 -8 -3 -16 -18 -19 -34 -2 -18 -5 -10
-6 20 0 31 -5 46 -12 42 -6 -4 -8 -14 -5 -22 4 -9 2 -21 -3 -27 -6 -7 -11
-431 -12 -1122 -2 -1109 -2 -1110 19 -1151 57 -111 210 -115 296 -9 l31 38 3
490 3 489 32 -6 c44 -10 89 -39 126 -81 63 -72 64 -77 70 -439 6 -327 6 -330
31 -379 48 -95 136 -143 242 -134 98 8 171 58 221 152 21 39 22 55 27 366 l5
325 28 57 c15 31 43 68 62 83 35 26 95 55 115 55 7 0 10 -155 10 -472 0 -437
2 -476 19 -513 34 -75 117 -123 189 -110 60 11 120 51 144 98 l23 42 -4 1560
c-1 858 -7 1580 -11 1605 -21 115 -85 230 -189 343 -69 74 -328 287 -350 287
-5 0 -29 -60 -55 -132z m-709 -1273 c0 -8 -4 -12 -9 -9 -5 3 -6 10 -3 15 9 13
12 11 12 -6z"/>
<path d="M6746 6357 c3 -10 9 -15 12 -12 3 3 0 11 -7 18 -10 9 -11 8 -5 -6z"/>
<path d="M3654 5781 c21 -23 26 -26 26 -11 0 5 -10 15 -22 21 -23 12 -23 12
-4 -10z"/>
<path d="M6090 4929 c0 -5 5 -7 10 -4 6 3 10 8 10 11 0 2 -4 4 -10 4 -5 0 -10
-5 -10 -11z"/>
<path d="M6087 4893 c3 -7 9 -10 14 -7 14 8 11 21 -5 21 -8 0 -12 -6 -9 -14z"/>
<path d="M4814 2890 c1 -309 1 -316 24 -363 29 -58 86 -117 138 -142 95 -47
256 -21 336 53 64 59 92 117 91 187 -1 41 2 54 7 40 5 -12 8 41 7 130 -1 126
-2 133 -4 43 -2 -61 -8 -108 -13 -108 -6 0 -11 15 -11 33 -1 23 -3 26 -6 10
-8 -40 -26 -26 -20 15 7 40 -5 73 -18 52 -4 -6 -17 -9 -30 -6 -14 3 -27 1 -31
-6 -4 -7 -3 -8 4 -4 14 8 14 -1 2 -29 -9 -20 -9 -20 -9 0 -1 11 -14 32 -30 48
-26 24 -39 28 -120 34 -81 5 -91 4 -91 -11 0 -12 9 -16 34 -16 19 0 37 5 39
10 3 6 4 5 3 -2 -4 -19 -146 -24 -158 -6 -7 9 -8 5 -4 -12 5 -24 4 -24 -9 -6
-8 11 -15 16 -15 12 0 -5 -6 -3 -14 3 -11 9 -15 9 -19 -1 -3 -7 -6 6 -6 30 -1
23 -6 42 -12 42 -6 0 -8 -17 -5 -47 8 -65 -2 -42 -13 32 l-10 60 1 -50 c2
-143 -19 -37 -31 155 -7 110 -8 77 -7 -180z m519 -95 c-7 -21 -13 -19 -13 6 0
11 4 18 10 14 5 -3 7 -12 3 -20z m57 -139 c0 -8 -6 -16 -14 -19 -10 -4 -12 0
-9 14 6 22 23 26 23 5z"/>
<path d="M4952 2900 c0 -14 2 -19 5 -12 2 6 2 18 0 25 -3 6 -5 1 -5 -13z"/>
<path d="M4900 2902 c0 -4 9 -8 20 -8 11 0 20 4 20 8 0 4 -9 8 -20 8 -11 0
-20 -4 -20 -8z"/>
<path d="M5382 2820 c0 -14 2 -19 5 -12 2 6 2 18 0 25 -3 6 -5 1 -5 -13z"/>
<path d="M2678 1992 l-38 -3 0 -255 0 -254 34 0 c66 0 66 0 66 132 0 89 3 119
12 116 7 -3 50 -59 96 -127 l84 -122 42 3 41 3 3 253 2 252 -50 0 -50 0 0
-121 c0 -92 -3 -120 -12 -117 -7 3 -48 56 -90 118 -43 63 -83 117 -90 120 -7
3 -30 4 -50 2z"/>
<path d="M5642 1992 l-42 -3 2 -252 3 -252 35 -3 c60 -4 65 4 66 128 1 61 4
113 7 116 2 3 41 -52 86 -121 l82 -126 42 3 42 3 3 253 2 252 -50 0 -50 0 0
-121 c0 -92 -3 -120 -12 -117 -7 3 -43 56 -81 119 -37 62 -73 116 -80 119 -6
3 -31 4 -55 2z"/>
<path d="M6487 1986 c-92 -33 -107 -68 -107 -249 0 -133 2 -147 23 -178 63
-94 207 -106 287 -24 33 34 34 38 38 130 l4 95 -86 0 -86 0 0 -44 c0 -43 1
-45 33 -48 25 -2 33 -8 35 -26 8 -56 -84 -86 -128 -42 -18 18 -20 33 -20 139
0 118 0 120 27 141 30 24 74 22 103 -5 22 -20 32 -19 74 6 30 17 34 24 26 39
-21 38 -105 80 -159 80 -14 -1 -43 -7 -64 -14z"/>
<path d="M1870 1946 l0 -44 70 -7 70 -7 2 -201 3 -202 40 0 40 0 3 203 2 202
48 0 c82 0 92 6 92 56 l0 44 -185 0 -185 0 0 -44z"/>
<path d="M2270 1740 l0 -250 145 0 145 0 0 29 c0 58 -4 61 -101 61 l-89 0 0
50 0 50 70 0 70 0 0 50 0 50 -70 0 -70 0 0 55 0 54 88 3 87 3 3 48 3 47 -140
0 -141 0 0 -250z"/>
<path d="M3259 1963 c-18 -49 -139 -466 -136 -470 2 -2 23 -4 46 -5 45 -1 61
11 61 48 0 27 17 34 86 34 50 0 55 -2 64 -27 19 -53 26 -58 70 -56 23 1 44 4
46 6 2 2 -28 115 -68 250 l-71 247 -44 0 c-38 0 -45 -3 -54 -27z m74 -223 c9
-32 17 -64 17 -70 0 -5 -18 -10 -40 -10 -30 0 -40 4 -40 16 0 25 31 124 38
124 4 0 15 -27 25 -60z"/>
<path d="M3550 1742 l0 -250 23 -6 c12 -3 34 -6 50 -6 l27 0 0 126 c0 82 3
123 10 119 6 -4 44 -55 85 -114 41 -60 82 -114 90 -121 19 -16 91 -2 89 18 -1
6 -2 118 -2 247 l-2 235 -44 0 c-54 0 -55 -5 -55 -143 1 -99 -5 -125 -21 -97
-5 8 -40 65 -78 125 l-69 110 -51 3 -52 3 0 -249z"/>
<path d="M4030 1946 c0 -51 8 -56 81 -56 l49 0 0 -200 0 -200 50 0 50 0 0 206
0 205 38 -2 c88 -6 92 -4 92 46 l0 45 -180 0 -180 0 0 -44z"/>
<path d="M4680 1740 l0 -250 44 0 c40 0 44 2 49 29 4 16 4 69 0 118 -5 82 -4
87 11 72 9 -8 34 -60 56 -115 l39 -99 37 0 c35 0 37 1 54 55 9 30 30 82 46
115 l29 60 3 -117 3 -118 49 0 50 0 0 250 0 251 -61 -3 -61 -3 -50 -120 c-28
-66 -54 -124 -58 -128 -4 -4 -32 50 -63 120 l-56 128 -60 3 -61 3 0 -251z"/>
<path d="M5339 1963 c-15 -38 -125 -400 -133 -440 -7 -30 -6 -33 17 -33 14 0
32 -3 40 -6 20 -7 47 22 47 51 0 21 5 24 64 30 70 8 86 3 86 -23 0 -10 7 -28
16 -41 14 -20 23 -22 56 -18 22 3 42 7 44 10 4 4 -33 144 -104 392 l-29 100
-46 3 c-43 3 -48 1 -58 -25z m78 -230 l20 -68 -23 -3 c-13 -2 -35 -2 -48 0
l-23 3 20 68 c11 37 23 67 27 67 4 0 16 -30 27 -67z"/>
<path d="M6102 1908 c-41 -152 -102 -393 -102 -405 0 -9 16 -13 49 -13 48 0
49 1 55 34 5 28 12 35 37 40 72 14 86 9 101 -36 13 -42 14 -43 58 -43 43 0 45
1 42 28 -2 15 -32 128 -66 250 l-62 222 -45 3 -45 3 -22 -83z m90 -176 c10
-31 18 -60 18 -64 0 -5 -18 -8 -40 -8 -22 0 -40 3 -40 6 0 18 35 133 39 128 3
-2 13 -30 23 -62z"/>
<path d="M6818 1888 c-2 -57 -1 -172 0 -255 l4 -153 44 0 44 0 0 122 c0 88 3
119 11 111 6 -6 32 -60 58 -119 41 -96 50 -109 73 -112 23 -3 28 3 46 50 11
29 33 80 49 113 l28 60 5 -110 5 -110 43 -3 c28 -2 44 1 47 10 3 8 4 98 3 201
l-3 188 -58 -52 c-32 -28 -60 -49 -63 -47 -6 7 69 118 100 147 14 14 26 33 26
43 0 17 -7 19 -56 16 -54 -3 -57 -4 -70 -38 -69 -185 -97 -250 -102 -245 -4 4
-32 68 -63 143 l-55 137 -56 3 -57 3 -3 -103z"/>
<path d="M7380 1734 l0 -255 48 3 47 3 5 125 5 125 83 -122 c45 -67 86 -124
90 -126 4 -2 24 -2 45 0 l37 5 0 250 0 249 -47 -3 -48 -3 -1 -110 c-1 -130 -2
-138 -12 -131 -4 2 -41 59 -82 125 l-75 121 -47 0 -48 0 0 -256z"/>
<path d="M7824 1953 c3 -21 5 -44 6 -52 0 -10 15 -12 63 -10 l62 4 5 -205 5
-205 40 0 40 0 3 201 2 201 61 7 c33 3 65 9 70 12 6 3 9 22 7 42 l-4 37 -183
3 -183 2 6 -37z"/>
</g>
</svg>
